<mxfile host="app.diagrams.net" modified="2023-08-18T12:21:26.388Z" agent="Mozilla/5.0 (Windows NT 10.0; Win64; x64) AppleWebKit/537.36 (KHTML, like Gecko) Chrome/115.0.0.0 Safari/537.36" version="21.6.8" etag="7-MiooflCqWdcGJ5QU7m" type="github">
  <diagram name="Page-1" id="sEJsBZUsh4g6vDXUpXGw">
    <mxGraphModel>
      <root>
        <mxCell id="0" />
        <mxCell id="1" parent="0" />
      </root>
    </mxGraphModel>
  </diagram>
</mxfile>
